<svg width="46" height="44" viewBox="0 0 46 44" fill="none" xmlns="http://www.w3.org/2000/svg">
<path d="M45.7573 21.9546C45.7573 19.2546 45.2253 16.6786 44.2947 14.288C44.0467 22.152 35.7173 28.2426 30.8267 32.2733H43.0693C44.7813 29.1946 45.7573 25.6853 45.7573 21.9546ZM36.9067 4.63731C33.032 1.73997 28.172 -2.79004e-05 22.8773 -2.79004e-05C10.2427 -2.79004e-05 0 9.8293 0 21.9546C0 34.08 10.2427 43.9093 22.8773 43.9093C28.6653 43.9093 33.9347 41.8333 37.9613 38.4333H21.3973L21.348 33.764C31.328 25.4386 37.4467 19.808 37.4467 14.3693C37.4467 12.348 36.644 9.7973 33.0347 9.7973C30.176 9.7973 27.4173 11.3866 27.9173 18.0266H22.1013C20.6453 10.328 25.0093 4.2133 33.3347 4.2133C34.6227 4.2133 35.8187 4.36264 36.9067 4.63731" fill="white"/>
</svg>
