<svg width="24" height="24" viewBox="0 0 24 24" fill="none" xmlns="http://www.w3.org/2000/svg">
<path fill-rule="evenodd" clip-rule="evenodd" d="M16.8797 12.0007C16.8794 12.9658 16.593 13.9091 16.0567 14.7114C15.5203 15.5136 14.7581 16.1389 13.8665 16.508C12.9748 16.8771 11.9937 16.9735 11.0473 16.785C10.1008 16.5965 9.23152 16.1316 8.54927 15.4491C7.86702 14.7666 7.40247 13.897 7.21436 12.9505C7.02625 12.0039 7.12302 11.0229 7.49245 10.1313C7.86188 9.23975 8.48736 8.47777 9.28982 7.9417C10.0923 7.40563 11.0357 7.11956 12.0007 7.11965C13.2949 7.12001 14.536 7.63444 15.4509 8.54979C16.3659 9.46514 16.8798 10.7064 16.8797 12.0007ZM23.9175 6.08609C23.9862 7.62767 24 8.09189 24 12.0007C24 15.9095 23.9862 16.3705 23.9175 17.9139C23.7331 21.8485 21.8892 23.7358 17.9178 23.9143C16.374 23.9839 15.9093 24 12.0002 24C8.09112 24 7.62737 23.9866 6.0877 23.9179C2.11037 23.7335 0.267368 21.8435 0.0880472 17.9176C0.0152123 16.3705 0 15.9072 0 12.0007C0 8.0942 0.0152123 7.62767 0.0857423 6.08609C0.267368 2.14871 2.11544 0.265074 6.08586 0.0866676C7.62922 0.0147519 8.09204 0 12.0007 0C15.9093 0 16.374 0.0147519 17.9141 0.0839016C21.8809 0.265074 23.7336 2.14871 23.9175 6.08609ZM19.5147 12.0007C19.5147 10.5145 19.074 9.0617 18.2483 7.82599C17.4227 6.59028 16.2492 5.62715 14.8762 5.05842C13.5032 4.48968 11.9924 4.34087 10.5348 4.63081C9.07722 4.92075 7.73836 5.63642 6.68751 6.68731C5.63666 7.73819 4.92103 9.07711 4.6311 10.5347C4.34117 11.9924 4.48997 13.5032 5.05869 14.8763C5.6274 16.2493 6.59049 17.4229 7.82615 18.2486C9.06182 19.0743 10.5146 19.515 12.0007 19.515C13.9935 19.515 15.9047 18.7233 17.3139 17.3141C18.723 15.9049 19.5147 13.9936 19.5147 12.0007ZM21.5702 4.18632C21.5702 3.83901 21.4672 3.49951 21.2743 3.21071C21.0814 2.92191 20.8072 2.69679 20.4864 2.56379C20.1656 2.4308 19.8125 2.39591 19.4719 2.46353C19.1312 2.53116 18.8183 2.69825 18.5726 2.94371C18.3269 3.18916 18.1595 3.50195 18.0915 3.84253C18.0235 4.18312 18.058 4.53622 18.1907 4.85719C18.3233 5.17816 18.5481 5.4526 18.8367 5.64582C19.1253 5.83904 19.4647 5.94236 19.812 5.94272C20.278 5.94272 20.7249 5.75773 21.0546 5.42839C21.3842 5.09906 21.5697 4.65232 21.5702 4.18632Z" fill="white"/>
</svg>
