<svg width="25" height="21" viewBox="0 0 25 21" fill="none" xmlns="http://www.w3.org/2000/svg">
<path fill-rule="evenodd" clip-rule="evenodd" d="M21.8653 6.6362L23.8687 9.99102C23.9346 10.1013 23.9773 10.2229 23.9944 10.3492C24.0116 10.4754 24.003 10.6036 23.9688 10.7266C23.9347 10.8495 23.8759 10.9648 23.7957 11.0657C23.7155 11.1667 23.6155 11.2514 23.5014 11.3149L11.6441 17.9342L10.4754 15.9775L9.60728 16.4618L10.776 18.4186L8.17478 19.8716C8.06079 19.9353 7.93494 19.9765 7.80442 19.9931C7.67391 20.0098 7.54124 20.0014 7.4141 19.9684C7.28695 19.9354 7.16778 19.8785 7.06339 19.801C6.959 19.7234 6.87142 19.6267 6.8057 19.5164L4.80221 16.1615C5.18255 15.9459 5.45925 15.5936 5.57194 15.1814C5.68463 14.7693 5.62421 14.3307 5.40376 13.9615C5.18332 13.5923 4.82073 13.3224 4.39526 13.2107C3.96978 13.099 3.51591 13.1545 3.13264 13.3652L1.12916 10.0104C1.06331 9.90019 1.02063 9.7785 1.00345 9.65228C0.986274 9.52607 0.994937 9.39779 1.02905 9.27484C1.06316 9.15189 1.122 9.03665 1.2022 8.93571C1.2824 8.83476 1.38243 8.75007 1.4965 8.68652L4.0977 7.2335L5.2664 9.19025L6.13453 8.70591L4.96583 6.74916L16.8231 0.129853C16.9371 0.0661777 17.063 0.0249059 17.1935 0.00829542C17.324 -0.0083151 17.4567 6.15581e-05 17.5838 0.0330485C17.711 0.0660354 17.8301 0.122931 17.9345 0.200486C18.0389 0.278042 18.1265 0.374767 18.1922 0.485067L20.1957 3.83989C20.0043 3.94513 19.8362 4.08596 19.7013 4.25423C19.5664 4.4225 19.4673 4.61492 19.4097 4.8204C19.352 5.02587 19.3368 5.24038 19.3652 5.45152C19.3936 5.66266 19.4649 5.86625 19.575 6.05064C19.6851 6.23503 19.8318 6.39658 20.0067 6.52591C20.1816 6.65524 20.3812 6.74984 20.5941 6.80427C20.807 6.85869 21.0289 6.87182 21.2471 6.84297C21.4652 6.81413 21.6753 6.74388 21.8653 6.6362V6.6362ZM6.80236 9.82634L5.93423 10.3107L7.10293 12.2674L7.97105 11.7831L6.80236 9.82634ZM8.63888 12.9003L7.77076 13.3846L8.93945 15.3414L9.80758 14.857L8.63888 12.9003Z" fill="#797E86"/>
</svg>
