<svg width="22" height="16" viewBox="0 0 22 16" fill="none" xmlns="http://www.w3.org/2000/svg">
<path fill-rule="evenodd" clip-rule="evenodd" d="M20.9858 16H0.889227L0 14.8393L0.622459 14.2143H21.2525L21.875 14.8393L20.9858 16ZM1.33384 12.6964C1.33384 7 5.25445 2.53116 10.2261 2.16902V2.16795L10.315 1.60714L9.58587 1.68848C9.37379 1.50991 9.24797 1.30866 9.24797 1.0683C9.24797 0.478304 10.0044 0 10.9375 0C11.8706 0 12.627 0.478304 12.627 1.0683C12.627 1.30866 12.5011 1.51018 12.2891 1.68848L11.56 1.60714L11.6489 2.16795C16.6206 2.53018 20.5412 7 20.5412 12.6964H1.33384Z" fill="white" fill-opacity="0.5"/>
</svg>
