<svg width="31" height="28" viewBox="0 0 31 28" fill="none" xmlns="http://www.w3.org/2000/svg">
<path fill-rule="evenodd" clip-rule="evenodd" d="M15.3273 4.00176C11.1373 4.09503 7.72798 7.80141 7.72798 11.9465C7.72798 16.8929 12.9093 21.6183 15.5069 23C18.0907 21.6183 23.272 16.8964 23.272 11.9465C23.272 7.80141 19.6451 3.90505 15.3273 4.00176ZM15.5 14.665C14.9356 14.6684 14.383 14.5041 13.9121 14.1931C13.4412 13.882 13.0733 13.4382 12.8549 12.9178C12.6366 12.3974 12.5777 11.8238 12.6857 11.2699C12.7937 10.716 13.0637 10.2066 13.4615 9.80631C13.8594 9.40604 14.3671 9.13297 14.9204 9.02161C15.4736 8.91024 16.0475 8.96565 16.5692 9.18082C17.091 9.396 17.5371 9.76124 17.851 10.2302C18.1649 10.6993 18.3324 11.2509 18.3324 11.8153C18.3338 12.5685 18.0364 13.2915 17.5054 13.8257C16.9744 14.36 16.2532 14.6618 15.5 14.665Z" fill="currentColor"/>
</svg>
