<svg width="30" height="28" viewBox="0 0 30 28" fill="none" xmlns="http://www.w3.org/2000/svg">
<path fill-rule="evenodd" clip-rule="evenodd" d="M23.9995 8.61905L21.2852 14.9524H9.11616L9.39367 16.7619H21.2852C21.5252 16.7619 21.7553 16.8572 21.925 17.0269C22.0947 17.1966 22.19 17.4267 22.19 17.6667C22.19 17.9066 22.0947 18.1368 21.925 18.3064C21.7553 18.4761 21.5252 18.5714 21.2852 18.5714H8.61857C8.40252 18.5713 8.19365 18.494 8.02946 18.3536C7.86527 18.2132 7.75654 18.0188 7.72287 17.8054L6.03093 6.80952H4.09476C3.85481 6.80952 3.62467 6.71421 3.455 6.54453C3.28532 6.37485 3.19 6.14472 3.19 5.90476C3.19 5.6648 3.28532 5.43467 3.455 5.26499C3.62467 5.09532 3.85481 5 4.09476 5H6.80905C7.02488 4.99977 7.23363 5.07695 7.39742 5.2175C7.56122 5.35806 7.66919 5.55268 7.70173 5.76604L8.14204 8.61905H23.9995ZM9.52333 20.3809C9.88122 20.3809 10.2311 20.4871 10.5287 20.6859C10.8262 20.8848 11.0581 21.1673 11.1951 21.498C11.3321 21.8286 11.3679 22.1925 11.2981 22.5435C11.2283 22.8945 11.0559 23.2169 10.8029 23.47C10.5498 23.7231 10.2274 23.8954 9.87639 23.9652C9.52537 24.0351 9.16149 23.9992 8.83085 23.8622C8.5002 23.7253 8.21762 23.4934 8.01878 23.1958C7.81995 22.8982 7.71381 22.5484 7.71381 22.1905C7.71381 21.7106 7.90445 21.2503 8.2438 20.9109C8.58315 20.5716 9.04342 20.3809 9.52333 20.3809ZM20.3805 20.3809C20.7384 20.3809 21.0882 20.4871 21.3858 20.6859C21.6834 20.8848 21.9153 21.1673 22.0522 21.498C22.1892 21.8286 22.2251 22.1925 22.1552 22.5435C22.0854 22.8945 21.9131 23.2169 21.66 23.47C21.4069 23.7231 21.0845 23.8954 20.7335 23.9652C20.3825 24.0351 20.0186 23.9992 19.688 23.8622C19.3573 23.7253 19.0748 23.4934 18.8759 23.1958C18.6771 22.8982 18.5709 22.5484 18.5709 22.1905C18.5709 21.7106 18.7616 21.2503 19.1009 20.9109C19.4403 20.5716 19.9006 20.3809 20.3805 20.3809Z" fill="currentColor"/>
</svg>
