<svg width="31" height="28" viewBox="0 0 31 28" fill="none" xmlns="http://www.w3.org/2000/svg">
<path fill-rule="evenodd" clip-rule="evenodd" d="M3.94056 5.99988H11.6469C12.4133 5.99988 13.1484 6.30013 13.6903 6.83461C14.2323 7.36909 14.5367 8.09401 14.5367 8.84988V24.9999C14.529 24.2464 14.2221 23.5259 13.6818 22.993C13.1415 22.4602 12.4109 22.1575 11.6469 22.1499H3.94056C3.68508 22.1499 3.44006 22.0498 3.25941 21.8716C3.07876 21.6935 2.97727 21.4518 2.97727 21.1999V6.94988C2.97727 6.69792 3.07876 6.45628 3.25941 6.27812C3.44006 6.09996 3.68508 5.99988 3.94056 5.99988ZM27.0594 5.99988H19.3531C18.5867 5.99988 17.8516 6.30013 17.3097 6.83461C16.7677 7.36909 16.4633 8.09401 16.4633 8.84988V24.9999C16.471 24.2464 16.7779 23.5259 17.3182 22.993C17.8585 22.4602 18.5891 22.1575 19.3531 22.1499H27.0594C27.3149 22.1499 27.5599 22.0498 27.7406 21.8716C27.9212 21.6935 28.0227 21.4518 28.0227 21.1999V6.94988C28.0227 6.69792 27.9212 6.45628 27.7406 6.27812C27.5599 6.09996 27.3149 5.99988 27.0594 5.99988Z" fill="currentColor"/>
</svg>
