<svg width="31" height="28" viewBox="0 0 31 28" fill="none" xmlns="http://www.w3.org/2000/svg">
<path fill-rule="evenodd" clip-rule="evenodd" d="M15.5476 23.9999H15.4525C9.36457 23.9904 6.10792 23.0952 5.43501 22.1208C5.55142 21.5772 5.74821 21.0541 6.019 20.5687C6.406 19.8687 6.94647 19.2653 7.59977 18.8038C8.08106 18.5174 8.59047 18.2813 9.1201 18.0992C9.78348 17.8516 10.4691 17.5914 11.1039 17.3184C11.4777 17.1569 11.8332 16.9557 12.1641 16.7184C12.2037 16.6919 12.2419 16.6633 12.2784 16.6327C12.6789 17.0941 13.1737 17.464 13.7295 17.7175C14.2853 17.9711 14.8892 18.1023 15.5001 18.1023C16.111 18.1023 16.7148 17.9711 17.2706 17.7175C17.8264 17.464 18.3213 17.0941 18.7217 16.6327C18.7583 16.6633 18.7965 16.6919 18.836 16.7184C19.1659 16.9556 19.5203 17.1568 19.893 17.3184C20.5279 17.5914 21.2135 17.8516 21.88 18.0992C22.4089 18.2806 22.9174 18.5168 23.3972 18.8038C24.0522 19.2643 24.594 19.8678 24.9811 20.5687C25.2519 21.0541 25.4487 21.5772 25.5651 22.1208C24.8922 23.0952 21.6324 23.9904 15.5476 23.9999ZM19.912 12.4493C19.8565 12.4839 19.7982 12.5137 19.7375 12.5382L19.5343 12.5477H19.528C19.1471 14.3474 18.1695 16.1058 16.5475 16.6264C16.2447 16.7232 15.9291 16.7746 15.6112 16.7788C15.5953 16.7629 15.5794 16.7438 15.5604 16.728C15.5445 16.7438 15.5286 16.7629 15.5128 16.7788C15.1948 16.7749 14.8792 16.7235 14.5764 16.6264C12.9545 16.1058 11.9768 14.3474 11.5927 12.5477H11.5896L11.3864 12.5382C11.3251 12.513 11.2656 12.4833 11.2087 12.4493C10.3707 11.9256 10.2723 10.202 10.7865 9.91636C10.8359 9.88834 10.8916 9.8731 10.9484 9.87196C10.9458 9.86376 10.9447 9.85513 10.9452 9.84654C10.9325 9.70053 10.9262 9.55449 10.9199 9.40848C10.8818 8.75779 10.8405 8.10713 10.8024 7.45644C10.7825 7.17133 10.8159 6.88505 10.9008 6.61215C11.0232 6.31433 11.182 6.03282 11.3737 5.77415C11.5607 5.45766 11.8413 5.20701 12.1768 5.0568C12.2682 5.0248 12.363 5.00351 12.4593 4.99333C12.5577 5.02507 12.6561 5.05365 12.7545 5.08222C13.0166 4.80366 13.3234 4.57088 13.6623 4.39346C14.1793 4.12484 14.7556 3.99059 15.3382 4.00306C15.4112 3.99988 15.4874 3.99988 15.5604 3.99988C15.6334 3.99988 15.7127 3.99988 15.7857 4.00306C15.837 3.99978 15.8885 4.00508 15.9381 4.01886C16.0301 4.02521 16.1222 4.03158 16.2111 4.04428C16.8217 4.12043 17.4182 4.284 17.9822 4.52993C18.5287 4.74145 19.0219 5.07093 19.4265 5.49487C19.6256 5.77095 19.768 6.0838 19.8454 6.41532C20.0302 7.08227 20.1483 7.76593 20.1977 8.45625C20.2216 8.91959 20.2152 9.38403 20.1787 9.84654C20.1787 9.85607 20.1755 9.86244 20.1755 9.87196C20.2323 9.8731 20.288 9.88834 20.3374 9.91636C20.8516 10.202 20.7532 11.9256 19.912 12.4493Z" fill="currentColor"/>
</svg>
