<svg width="30" height="28" fill="none" xmlns="http://www.w3.org/2000/svg"><path fill-rule="evenodd" clip-rule="evenodd" d="M19.034 12.939V6.476h10.303l.49 6.463H19.034zM7.748 5.184A2.83 2.83 0 0 1 6.54 4.64c-.342-.27-.6-.612-.75-.995-.093-.329-.099-.673-.014-1.004a2.08 2.08 0 0 1 .5-.904c1.267-1.418 4.387-1.15 6.38-.43a8.086 8.086 0 0 1 1.971 1.037c-.245.28-.485.565-.726.85.236.09.476.176.717.266.85-1.39 2.244-2.46 3.925-3.016 1.717-.538 4.98-.866 5.956.733.618 1.008.202 2.598-1.246 4.007H7.75zm3.925 7.755H.88l.49-6.463h10.304v6.463zm0 14.063H3.333l-.982-12.77h9.323v12.77zm5.887 0h-4.415V6.476h4.415v20.526zm9.814 0h-8.341v-12.77h9.322l-.982 12.77z" fill="#997836"/></svg>